<?xml version="1.0" encoding="UTF-8"?>
<svg xmlns="http://www.w3.org/2000/svg" width="349" height="100" viewBox="0 0 349 100" fill="none">
  <g clip-path="url(#clip0_93_3)">
    <path fill-rule="evenodd" clip-rule="evenodd" d="M34.8298 6.05005C52.9617 6.05005 67.6596 20.6976 67.6596 38.7674C67.6596 56.8372 52.9617 71.4847 34.8298 71.4847C16.6979 71.4847 2 56.8372 2 38.7674C2 20.6976 16.6979 6.05005 34.8298 6.05005Z" fill="#2E3191"></path>
    <path fill-rule="evenodd" clip-rule="evenodd" d="M30.8463 20.0131L9.62366 45.1671L31.018 0.677002C36.7872 13.3396 53.6142 79.7667 77.8245 65.1534C54.198 81.3067 37.0963 36.8166 30.8463 20.0131Z" fill="#00ADEE"></path>
    <path d="M67.6596 70.321C65.9426 70.321 64.2255 70.0472 62.5085 69.4997C47.8793 64.8795 37.1993 41.642 30.2625 23.2984L10.8943 46.2622C10.3448 46.9124 9.4176 47.0493 8.69644 46.6044C7.97528 46.1595 7.7349 45.2355 8.0783 44.4483L29.4726 -0.0417511C29.7474 -0.623544 30.3312 -1 30.9836 -1C30.9836 -1 30.9836 -1 31.018 -1C31.6704 -1 32.2542 -0.623542 32.529 -0.00752592C33.5935 2.28542 34.9328 6.22108 36.6499 11.1492C42.5908 28.2266 53.6486 60.0199 67.3505 64.9138C70.5442 66.0431 73.6692 65.6667 76.8973 63.716C77.6871 63.2368 78.683 63.4764 79.1981 64.2293C79.6789 64.9822 79.4728 66.0089 78.7173 66.5223C75.0772 69.0548 71.3684 70.321 67.6596 70.321ZM30.8463 18.3361C30.9493 18.3361 31.0523 18.3361 31.121 18.3703C31.7048 18.473 32.2199 18.8836 32.4259 19.4312C36.1004 29.3217 46.9178 58.514 61.4096 65.4613C48.6691 55.9473 39.3284 29.0479 33.4562 12.2786C32.4603 9.40384 31.6018 6.90555 30.8463 4.88638L16.8696 33.9761L29.5413 18.9863C29.8847 18.5414 30.3655 18.3361 30.8463 18.3361Z" fill="white"></path>
    <path fill-rule="evenodd" clip-rule="evenodd" d="M30.8463 20.0131L9.62366 45.1671L31.018 0.677002C36.7872 13.3396 53.6142 79.7667 77.8245 65.1534C54.198 81.3067 37.0963 36.8166 30.8463 20.0131Z" fill="#EC1C24"></path>
    <path fill-rule="evenodd" clip-rule="evenodd" d="M172.502 59.8146L169.823 68.9522H95.819C95.819 68.9522 88.6761 69.3628 87.9206 62.2787V55.6394V11.2862C87.9206 11.2862 87.5428 3.96245 96.2998 3.92822H337.887C337.887 3.92822 345.648 4.54423 344.927 12.1418V60.1568C344.927 60.1568 346.438 68.7468 336.582 69.0891H267.454L265.291 61.9364L264.158 58.2403C263.746 56.8372 263.505 55.6052 262.235 54.6811C261.17 53.9282 259.35 53.2438 256.294 53.2438H233.285H180.641C180.641 53.2438 177.069 52.8673 174.734 54.9549C173.258 56.2212 173.017 58.035 172.502 59.8146Z" fill="#D92128"></path>
    <path fill-rule="evenodd" clip-rule="evenodd" d="M168.896 72.0665L169.171 71.1083H94.8232C94.8232 71.1083 86.8561 71.3821 86.1006 63.0658V25.0097V11.0124C86.1006 11.0124 85.2764 1.90908 95.3039 1.84064H242.18H338.437C338.437 1.84064 347.537 1.60108 346.885 11.7311V62.3471C346.885 62.3471 347.194 71.2452 337.304 70.9714H268.107L268.416 71.9981H317.18H336.479C336.479 71.9981 340.875 72.4087 343.897 70.3554C343.897 70.3554 347.606 68.7126 347.846 62.5183V35.8927V10.1226C347.846 10.1226 348.121 6.76877 345.236 3.65446C345.236 3.65446 343.176 1.29307 338.815 0.950838H311.479H236.651H117.557H94.5828C94.5828 0.950838 90.7366 0.813943 87.8176 3.55179C87.8176 3.55179 85.036 5.94742 85.1734 10.9098V23.9146V60.0884V63.1343C85.1734 63.1343 85.3451 70.6634 93.1748 71.827C93.1748 71.827 93.9303 71.9981 94.8575 72.0323H114.191H168.896V72.0665Z" fill="black"></path>
    <path d="M169.034 72.2375H94.8232C93.896 72.2033 93.1405 72.0322 93.1061 72.0322C85.2421 70.8344 84.9673 63.2368 84.9673 63.1684V10.9439C84.8643 5.94732 87.5772 3.5517 87.6803 3.44903C90.6336 0.676956 94.5484 0.81385 94.5828 0.81385H338.815C343.176 1.15608 345.271 3.48325 345.339 3.5517C348.224 6.70023 348.018 9.98565 347.984 10.1568V62.5524C347.709 68.781 344.069 70.4922 343.931 70.5606C340.944 72.614 336.617 72.2375 336.445 72.2375H268.279L267.867 70.8686H337.304C340.36 70.9713 342.695 70.1842 344.309 68.5414C346.782 66.0774 346.679 62.4497 346.679 62.4155V11.7653C346.885 8.61673 346.164 6.18688 344.549 4.50995C342.111 1.97744 338.471 2.04589 338.403 2.04589H95.2696C92.2132 2.04589 89.8781 2.93569 88.3327 4.61262C85.9289 7.21358 86.238 10.9781 86.238 11.0123V63.0315C86.9591 71.0739 94.4797 70.9028 94.7888 70.9028H169.377L169.034 72.2375ZM94.4797 1.12186C93.9303 1.12186 90.4962 1.22453 87.8863 3.6886C87.852 3.72282 85.1734 6.08421 85.2764 10.9439V63.1684C85.2764 63.4764 85.5511 70.5606 93.1405 71.69C93.1748 71.69 93.896 71.8611 94.7888 71.8953H168.725L168.896 71.2793H94.7888C94.6858 71.2793 86.65 71.4504 85.8945 63.0657V11.0466C85.8945 10.9097 85.5855 7.14513 88.058 4.40728C89.672 2.62768 92.1102 1.73788 95.2696 1.70365H338.403C338.54 1.70365 342.249 1.63521 344.79 4.27039C346.473 6.01577 347.228 8.54828 347.022 11.7995V62.3813C347.022 62.5182 347.125 66.18 344.549 68.7468C342.867 70.4579 340.429 71.2451 337.269 71.1766H268.313L268.519 71.8611H336.445C336.514 71.8611 340.841 72.2375 343.76 70.2526C343.828 70.2184 347.4 68.5414 347.64 62.5524V10.1225C347.64 10.0883 347.846 6.8029 345.065 3.79126C345.03 3.75704 342.97 1.46409 338.78 1.15608H94.5484C94.5484 1.12186 94.5484 1.12186 94.4797 1.12186Z" fill="black"></path>
    <path d="M113.47 40.3759L115.119 49.0344H122.296L114.913 11.1493H106.053L97.8108 49.0344H104.988L106.671 40.3759H113.47ZM107.392 34.6606L108.8 26.7209C109.178 24.5306 109.761 20.6634 110.139 18.1309H110.311C110.654 20.5949 111.169 24.4279 111.547 26.7209L112.783 34.6606H107.392ZM150.352 49.0344H156.946L154.645 11.1493H146.849L143.793 24.8728C142.832 29.6641 141.973 33.9077 141.424 38.1514H141.252C140.565 33.8735 139.604 29.6641 138.608 24.8728L135.551 11.1493H127.722L125.009 49.0344H131.327L132.014 35.8927C132.186 32.1281 132.461 27.3369 132.564 23.2643H132.667C133.285 27.3711 134.315 32.0939 135.036 35.1055L138.196 48.4183H143.415L146.746 34.866C147.468 31.957 148.498 27.2684 149.185 23.2301H149.288C149.219 27.2684 149.459 32.1623 149.7 35.7558L150.352 49.0344ZM186.273 49.0344H192.866L190.565 11.1493H182.77L179.714 24.8728C178.752 29.6641 177.894 33.9077 177.344 38.1514H177.172C176.486 33.8735 175.524 29.6641 174.528 24.8728L171.472 11.1493H163.676L160.964 49.0344H167.282L167.969 35.8927C168.141 32.1281 168.415 27.3369 168.519 23.2643H168.622C169.24 27.3711 170.27 32.0939 170.991 35.1055L174.15 48.4183H179.336L182.667 34.866C183.388 31.957 184.418 27.2684 185.105 23.2301H185.208C185.139 27.2684 185.38 32.1623 185.586 35.7558L186.273 49.0344ZM211.17 40.3759L212.818 49.0344H219.995L212.612 11.1493H203.752L195.51 49.0344H202.688L204.37 40.3759H211.17ZM205.057 34.6606L206.465 26.7209C206.843 24.5306 207.427 20.6634 207.804 18.1309H207.976C208.32 20.5949 208.835 24.4279 209.212 26.7209L210.449 34.6606H205.057ZM230.607 49.0344V40.547C230.607 32.9153 230.332 27.0631 230.092 23.2301H230.195C231.087 26.6182 232.805 31.4437 234.075 34.6264L239.879 49.0001H246.644V11.1493H240.153V19.534C240.153 26.5155 240.669 33.0864 240.875 37.0563H240.772C239.707 33.8051 237.887 28.9111 236.719 26.0022L230.847 11.1493H224.116V49.0344H230.607ZM251.658 30.8961V36.1665H262.887V30.8961H251.658ZM270.476 49.0344H277.86V17.9597H284.625V11.1493H263.746V17.9597H270.476V49.0344ZM288.54 49.0344H295.923V33.9077H297.056C299.494 33.9077 300.662 35.2424 301.349 39.931C301.898 44.1404 302.757 47.9734 303.272 49.0344H310.999C310.312 47.6312 309.316 42.9769 308.56 38.7674C307.839 34.6606 306.534 32.2992 303.924 31.2383V31.1357C307.771 29.3903 309.797 25.7284 309.797 21.6901C309.797 18.4389 309.075 15.9064 306.74 13.8188C304.302 11.6285 300.662 11.0125 296.575 11.0125C293.759 11.0125 290.84 11.2862 288.505 11.7311V49.0344H288.54ZM295.923 16.933C296.301 16.7619 297.056 16.6935 297.743 16.6935C301.005 16.7962 302.31 19.0549 302.31 22.3061C302.31 25.6257 300.49 28.1925 297.297 28.1925H295.957V16.933H295.923ZM326.658 49.0344V34.25L335.174 11.1493H327.482L325.216 20.0131C324.529 22.7168 323.911 25.4546 323.464 28.2267H323.361C322.812 25.4204 322.056 22.6141 321.335 20.1842L318.794 11.1493H310.895L319.24 34.5238V49.0344H326.658Z" fill="#231F20"></path>
    <path d="M113.47 39.0754L115.119 47.7338H122.296L114.913 9.8488H106.053L97.8108 47.7338H104.954L106.671 39.0754H113.47ZM107.392 33.3601L108.8 25.4203C109.178 23.2301 109.761 19.3628 110.139 16.8303H110.311C110.654 19.2944 111.169 23.1274 111.547 25.4203L112.783 33.3601H107.392ZM150.352 47.7338H156.946L154.645 9.8488H146.849L143.793 23.5723C142.832 28.3635 141.973 32.6072 141.424 36.8509H141.252C140.565 32.573 139.604 28.3635 138.608 23.5723L135.551 9.8488H127.722L125.009 47.7338H131.327L132.014 34.5921C132.186 30.8276 132.461 26.0363 132.564 21.9638H132.667C133.285 26.0706 134.315 30.7934 135.036 33.805L138.196 47.1178H143.415L146.746 33.5654C147.468 30.6565 148.498 25.9679 149.185 21.9296H149.288C149.219 25.9679 149.459 30.8618 149.665 34.4552L150.352 47.7338ZM186.273 47.7338H192.866L190.565 9.8488H182.77L179.714 23.5723C178.752 28.3635 177.894 32.6072 177.344 36.8509H177.172C176.486 32.573 175.524 28.3635 174.528 23.5723L171.472 9.8488H163.676L160.964 47.7338H167.282L167.969 34.5921C168.141 30.8276 168.415 26.0363 168.519 21.9638H168.622C169.24 26.0706 170.27 30.7934 170.991 33.805L174.15 47.1178H179.336L182.667 33.5654C183.388 30.6565 184.418 25.9679 185.105 21.9296H185.208C185.139 25.9679 185.38 30.8618 185.586 34.4552L186.273 47.7338ZM211.17 39.0754L212.818 47.7338H219.995L212.612 9.8488H203.752L195.51 47.7338H202.688L204.37 39.0754H211.17ZM205.057 33.3601L206.465 25.4203C206.843 23.2301 207.427 19.3628 207.804 16.8303H207.976C208.32 19.2944 208.835 23.1274 209.212 25.4203L210.449 33.3601H205.057ZM230.607 47.7338V39.2465C230.607 31.6147 230.332 25.7626 230.092 21.9296H230.195C231.087 25.3177 232.805 30.1431 234.075 33.3259L239.879 47.6996H246.644V9.8488H240.153V18.2335C240.153 25.215 240.669 31.7858 240.875 35.7557H240.772C239.707 32.5045 237.887 27.6106 236.719 24.7016L230.847 9.8488H224.116V47.7338H230.607ZM251.658 29.5956V34.8659H262.887V29.5956H251.658ZM270.476 47.7338H277.86V16.6592H284.625V9.8488H263.746V16.6592H270.476V47.7338ZM288.54 47.7338H295.923V32.6072H297.056C299.494 32.6072 300.662 33.9419 301.349 38.6305C301.898 42.8399 302.757 46.6729 303.272 47.7338H310.999C310.312 46.3307 309.316 41.6763 308.56 37.4669C307.839 33.3601 306.534 30.9987 303.924 29.9378V29.8351C307.771 28.0897 309.797 24.4279 309.797 20.3895C309.797 17.1383 309.075 14.6058 306.74 12.5182C304.302 10.3279 300.662 9.71191 296.575 9.71191C293.759 9.71191 290.84 9.98569 288.505 10.4306V47.7338H288.54ZM295.923 15.6325C296.301 15.4614 297.056 15.3929 297.743 15.3929C301.005 15.4956 302.31 17.7544 302.31 21.0056C302.31 24.3252 300.49 26.8919 297.297 26.8919H295.957V15.6325H295.923ZM326.658 47.7338V32.9494L335.174 9.8488H327.482L325.216 18.7126C324.529 21.4162 323.911 24.1541 323.464 26.9261H323.361C322.812 24.1199 322.056 21.3136 321.335 18.8837L318.794 9.8488H310.895L319.24 33.2232V47.7338H326.658Z" fill="white"></path>
    <path d="M187.2 72.3401C186.341 72.3401 185.689 72.169 185.174 71.7925C184.659 71.4503 184.315 70.937 184.109 70.2867C183.903 69.6365 183.8 68.8494 183.8 67.9938V63.7843C183.8 62.8945 183.903 62.1074 184.144 61.4572C184.35 60.8069 184.727 60.2936 185.277 59.9513C185.826 59.6091 186.547 59.438 187.509 59.438C188.402 59.438 189.123 59.5749 189.638 59.8829C190.153 60.1909 190.531 60.6016 190.771 61.1491C191.012 61.6967 191.115 62.347 191.115 63.0999V63.8185H188.608V62.9288C188.608 62.5865 188.574 62.3127 188.539 62.0389C188.505 61.7994 188.402 61.594 188.264 61.4572C188.127 61.3203 187.887 61.2518 187.543 61.2518C187.2 61.2518 186.96 61.3545 186.788 61.5256C186.616 61.6967 186.547 61.9363 186.479 62.2101C186.444 62.4838 186.41 62.7919 186.41 63.0999V68.6782C186.41 69.0205 186.444 69.3627 186.513 69.6365C186.582 69.9103 186.685 70.1498 186.857 70.2867C187.028 70.4578 187.269 70.5263 187.612 70.5263C187.921 70.5263 188.196 70.4578 188.368 70.2867C188.539 70.1156 188.677 69.9103 188.745 69.6023C188.814 69.3285 188.848 68.9862 188.848 68.644V67.3093H187.612V65.7693H191.183V72.2374H189.432L189.26 71.1081C189.089 71.4845 188.848 71.7925 188.505 72.0663C188.196 72.2032 187.749 72.3401 187.2 72.3401Z" fill="black"></path>
    <path d="M196.472 72.1349V59.5408H199.734C200.593 59.5408 201.314 59.6434 201.932 59.8146C202.55 60.0199 202.997 60.3621 203.34 60.8413C203.683 61.3204 203.821 62.0048 203.821 62.8604C203.821 63.3738 203.787 63.8529 203.683 64.2293C203.58 64.64 203.443 64.9823 203.203 65.256C202.962 65.564 202.653 65.8036 202.276 65.9747L204.027 72.1007H201.383L199.94 66.3854H199.047V72.1007H196.472V72.1349ZM199.047 64.9138H199.803C200.215 64.9138 200.558 64.8454 200.799 64.7085C201.039 64.5716 201.211 64.3662 201.314 64.0925C201.417 63.8187 201.451 63.4764 201.451 63.0658C201.451 62.484 201.348 62.0391 201.142 61.7311C200.936 61.4231 200.524 61.2862 199.94 61.2862H199.047V64.9138Z" fill="black"></path>
    <path d="M212.543 72.306C211.616 72.306 210.895 72.1349 210.346 71.7926C209.796 71.4504 209.418 70.9713 209.178 70.3553C208.938 69.7392 208.835 68.9863 208.835 68.1308V63.4422C208.835 62.5866 208.938 61.8337 209.178 61.2519C209.418 60.6359 209.796 60.191 210.346 59.8488C210.895 59.5408 211.616 59.3696 212.543 59.3696C213.471 59.3696 214.226 59.5408 214.776 59.8488C215.325 60.191 215.703 60.6359 215.943 61.2519C216.184 61.8679 216.287 62.5866 216.287 63.4422V68.1308C216.287 68.9863 216.184 69.7392 215.943 70.3553C215.703 70.9713 215.325 71.4504 214.776 71.7926C214.226 72.1691 213.505 72.306 212.543 72.306ZM212.543 70.4579C212.887 70.4579 213.127 70.3895 213.265 70.2184C213.436 70.0815 213.539 69.8761 213.574 69.6024C213.642 69.3628 213.642 69.089 213.642 68.781V62.8262C213.642 62.5524 213.608 62.2786 213.574 62.0048C213.505 61.7653 213.402 61.5599 213.265 61.423C213.127 61.2861 212.852 61.1835 212.543 61.1835C212.234 61.1835 211.994 61.2519 211.857 61.423C211.685 61.5599 211.582 61.7653 211.548 62.0048C211.479 62.2444 211.479 62.5182 211.479 62.8262V68.781C211.479 69.0548 211.513 69.3286 211.548 69.6024C211.582 69.8419 211.685 70.0473 211.857 70.2184C211.994 70.3895 212.234 70.4579 212.543 70.4579Z" fill="black"></path>
    <path d="M225.146 72.306C224.185 72.306 223.464 72.1349 222.914 71.8269C222.399 71.4847 222.021 71.0398 221.815 70.4237C221.609 69.8077 221.506 69.0548 221.506 68.165V59.5408H224.048V68.5072C224.048 68.8152 224.082 69.1233 224.116 69.4313C224.151 69.7393 224.254 69.9788 224.425 70.1499C224.597 70.3211 224.837 70.4237 225.181 70.4237C225.524 70.4237 225.765 70.3211 225.936 70.1499C226.108 69.9788 226.211 69.7051 226.245 69.4313C226.28 69.1233 226.314 68.8152 226.314 68.5072V59.5408H228.855V68.165C228.855 69.0548 228.752 69.8077 228.546 70.4237C228.34 71.0398 227.962 71.5189 227.447 71.8269C226.864 72.1691 226.108 72.306 225.146 72.306Z" fill="black"></path>
    <path d="M234.178 72.1349V59.5408H238.196C238.951 59.5408 239.57 59.6777 240.05 59.9515C240.531 60.2252 240.875 60.6359 241.115 61.1835C241.355 61.7311 241.458 62.3813 241.458 63.1342C241.458 64.024 241.321 64.7427 241.012 65.256C240.703 65.7694 240.291 66.1116 239.741 66.3512C239.226 66.5565 238.608 66.6592 237.921 66.6592H236.754V72.1007H234.178V72.1349ZM236.754 64.8796H237.647C238.024 64.8796 238.299 64.8111 238.505 64.7085C238.711 64.6058 238.848 64.4005 238.917 64.1267C238.986 63.8529 239.02 63.5449 239.02 63.1342C239.02 62.7577 238.986 62.4155 238.951 62.176C238.883 61.9022 238.78 61.7311 238.574 61.5599C238.368 61.4231 238.059 61.3546 237.647 61.3546H236.754V64.8796Z" fill="black"></path>
    <path d="M249.563 72.306C248.773 72.306 248.12 72.1691 247.605 71.8953C247.09 71.6215 246.678 71.1766 246.438 70.5948C246.163 70.013 246.026 69.2943 245.991 68.4045L248.189 68.0281C248.223 68.5414 248.258 68.9863 248.361 69.3286C248.464 69.6708 248.601 69.9446 248.773 70.1157C248.945 70.2868 249.185 70.3553 249.46 70.3553C249.803 70.3553 250.009 70.2526 250.147 70.0473C250.25 69.8419 250.318 69.6023 250.318 69.3286C250.318 68.8152 250.181 68.3703 249.941 67.9939C249.7 67.6516 249.357 67.2752 248.945 66.8987L247.64 65.7694C247.159 65.3587 246.781 64.9138 246.506 64.4347C246.197 63.9213 246.06 63.3395 246.06 62.5866C246.06 61.5599 246.369 60.7386 246.987 60.191C247.605 59.6434 248.43 59.3696 249.494 59.3696C250.112 59.3696 250.662 59.4723 251.039 59.6776C251.452 59.883 251.761 60.1568 251.967 60.499C252.207 60.8412 252.344 61.2177 252.447 61.6284C252.55 62.039 252.585 62.4497 252.619 62.8604L250.421 63.2026C250.387 62.8262 250.353 62.4839 250.318 62.1759C250.284 61.9021 250.181 61.6626 250.044 61.4915C249.906 61.3204 249.7 61.2519 249.425 61.2519C249.116 61.2519 248.91 61.3546 248.739 61.5941C248.601 61.8337 248.533 62.0733 248.533 62.347C248.533 62.7919 248.636 63.1684 248.842 63.4422C249.048 63.716 249.322 64.024 249.666 64.332L250.936 65.4614C251.452 65.9063 251.932 66.4538 252.31 67.0356C252.688 67.6174 252.894 68.3361 252.894 69.1917C252.894 69.7735 252.756 70.321 252.482 70.8002C252.207 71.2793 251.829 71.6557 251.348 71.9295C250.765 72.1691 250.215 72.306 249.563 72.306Z" fill="black"></path>
    <path d="M102.138 96.5018V84.6948H105.125C105.641 84.6948 106.121 84.7291 106.568 84.8317C107.014 84.9344 107.392 85.0713 107.735 85.3108C108.079 85.5504 108.319 85.8584 108.525 86.2349C108.697 86.6455 108.8 87.1247 108.8 87.7749C108.8 88.254 108.731 88.6647 108.594 89.0069C108.457 89.3492 108.25 89.623 108.01 89.7941C107.77 89.9994 107.461 90.1363 107.083 90.1705C107.529 90.239 107.941 90.4101 108.25 90.6497C108.56 90.8892 108.8 91.1972 108.937 91.6079C109.109 92.0186 109.178 92.4977 109.178 93.0453C109.178 93.6271 109.109 94.1404 108.937 94.5853C108.8 95.0302 108.56 95.3725 108.285 95.6805C107.976 95.9542 107.632 96.1596 107.186 96.3307C106.774 96.4676 106.259 96.536 105.709 96.536H102.138V96.5018ZM104.542 89.4518H105.125C105.538 89.4518 105.847 89.3834 106.087 89.2807C106.293 89.1438 106.465 88.9727 106.533 88.7332C106.602 88.4936 106.671 88.1856 106.671 87.8091C106.671 87.4327 106.602 87.1589 106.499 86.9536C106.362 86.7482 106.19 86.5771 105.95 86.4744C105.709 86.3718 105.4 86.3375 105.022 86.3375H104.576V89.4518H104.542ZM104.542 94.7906H105.228C105.847 94.7906 106.259 94.6538 106.465 94.3458C106.705 94.0377 106.808 93.5928 106.808 92.9768C106.808 92.4977 106.739 92.1555 106.636 91.8475C106.533 91.5737 106.362 91.3683 106.121 91.2314C105.881 91.0946 105.572 91.0261 105.16 91.0261H104.542V94.7906Z" fill="black"></path>
    <path d="M110.551 96.5018V84.6948H112.955V96.5018H110.551Z" fill="black"></path>
    <path d="M114.775 96.5018V84.6948H117.179V94.8591H119.961V96.5018H114.775Z" fill="black"></path>
    <path d="M121.094 96.5018V84.6948H123.498V94.8591H126.279V96.5018H121.094Z" fill="black"></path>
    <path d="M127.447 96.5018V84.6948H132.598V86.3718H129.851V89.5203H131.98V91.1972H129.851V94.8591H132.632V96.5018H127.447Z" fill="black"></path>
    <path d="M134.968 96.5018V86.4744H133.148V84.6948H139.192V86.4744H137.406V96.5018H134.968Z" fill="black"></path>
    <path d="M143.347 96.6387C142.626 96.6387 142.008 96.5018 141.527 96.228C141.046 95.9542 140.668 95.5435 140.428 95.0302C140.187 94.4826 140.05 93.7982 139.981 92.9768L142.042 92.6346C142.076 93.1137 142.111 93.5244 142.179 93.8666C142.248 94.2088 142.385 94.4484 142.557 94.5853C142.729 94.7564 142.935 94.8249 143.209 94.8249C143.519 94.8249 143.725 94.7222 143.862 94.5168C143.965 94.3115 144.034 94.1062 144.034 93.8324C144.034 93.3533 143.931 92.9084 143.69 92.6003C143.45 92.2581 143.141 91.9159 142.763 91.5736L141.527 90.5127C141.08 90.1363 140.737 89.7256 140.462 89.2465C140.187 88.7674 140.05 88.2198 140.05 87.5353C140.05 86.5771 140.325 85.8242 140.909 85.3108C141.492 84.7975 142.248 84.5237 143.244 84.5237C143.828 84.5237 144.343 84.6264 144.72 84.8317C145.098 85.037 145.407 85.2766 145.613 85.6188C145.819 85.9611 145.957 86.3033 146.06 86.6797C146.128 87.0562 146.197 87.4327 146.197 87.8091L144.137 88.1171C144.102 87.7407 144.102 87.4327 144.034 87.1589C143.999 86.8851 143.896 86.6797 143.759 86.5086C143.622 86.3375 143.416 86.2691 143.175 86.2691C142.9 86.2691 142.694 86.3717 142.557 86.5771C142.42 86.7824 142.351 87.022 142.351 87.2615C142.351 87.6722 142.454 88.0144 142.626 88.2882C142.832 88.562 143.072 88.8358 143.416 89.1096L144.617 90.1705C145.098 90.6154 145.545 91.0945 145.888 91.6421C146.231 92.1897 146.438 92.8741 146.438 93.6613C146.438 94.2088 146.3 94.7222 146.06 95.1671C145.819 95.612 145.442 95.9542 144.995 96.228C144.48 96.536 143.931 96.6387 143.347 96.6387Z" fill="black"></path>
    <path d="M155.023 99.0001V84.6606H156.877V99.0001H155.023Z" fill="black"></path>
    <path d="M167.145 96.5018V86.4744H165.325V84.6948H171.369V86.4744H169.583V96.5018H167.145Z" fill="black"></path>
    <path d="M172.296 96.5018L172.502 84.6948H175.078L176.554 92.1555L178.134 84.6948H180.607L180.813 96.5018H179.061L178.855 88.4936L177.344 96.5018H175.833L174.254 88.4252L174.082 96.5018H172.296Z" fill="black"></path>
    <path d="M183.56 96.5018V86.4744H181.74V84.6948H187.784V86.4744H185.998V96.5018H183.56Z" fill="black"></path>
    <path d="M192.489 96.5018V84.6948H195.476C195.991 84.6948 196.472 84.7291 196.918 84.8317C197.365 84.9344 197.743 85.0713 198.086 85.3108C198.429 85.5504 198.67 85.8584 198.876 86.2349C199.048 86.6455 199.151 87.1247 199.151 87.7749C199.151 88.254 199.082 88.6647 198.945 89.0069C198.807 89.3492 198.601 89.623 198.361 89.7941C198.12 89.9994 197.811 90.1363 197.434 90.1705C197.88 90.239 198.292 90.4101 198.601 90.6497C198.91 90.8892 199.151 91.1972 199.288 91.6079C199.46 92.0186 199.528 92.4977 199.528 93.0453C199.528 93.6271 199.46 94.1404 199.288 94.5853C199.151 95.0302 198.91 95.3725 198.636 95.6805C198.326 95.9542 197.983 96.1596 197.537 96.3307C197.125 96.4676 196.609 96.536 196.06 96.536H192.489V96.5018ZM194.927 89.4518H195.511C195.923 89.4518 196.232 89.3834 196.472 89.2807C196.678 89.1438 196.85 88.9727 196.918 88.7332C196.987 88.4936 197.056 88.1856 197.056 87.8091C197.056 87.4327 196.987 87.1589 196.884 86.9536C196.747 86.7482 196.575 86.5771 196.335 86.4744C196.094 86.3718 195.785 86.3375 195.407 86.3375H194.927V89.4518ZM194.927 94.7906H195.614C196.232 94.7906 196.644 94.6538 196.85 94.3458C197.09 94.0377 197.193 93.5928 197.193 92.9768C197.193 92.4977 197.125 92.1555 197.021 91.8475C196.918 91.5737 196.747 91.3683 196.506 91.2314C196.266 91.0946 195.957 91.0261 195.545 91.0261H194.927V94.7906Z" fill="black"></path>
    <path d="M200.284 96.5018L202.585 84.6948H205.263L207.53 96.5018H205.298L204.885 93.9009H202.997L202.55 96.5018H200.284ZM203.237 92.4293H204.645L203.924 87.6722L203.237 92.4293Z" fill="black"></path>
    <path d="M208.732 96.5018V84.6948H211.788C212.578 84.6948 213.265 84.7975 213.848 84.9686C214.432 85.1397 214.844 85.482 215.153 85.9269C215.462 86.3718 215.6 87.022 215.6 87.8091C215.6 88.2883 215.566 88.7332 215.462 89.1096C215.394 89.4861 215.222 89.7941 215.016 90.1021C214.81 90.3759 214.501 90.6154 214.123 90.7523L215.772 96.5018H213.299L211.925 91.163H211.067V96.5018H208.732ZM211.136 89.7256H211.822C212.2 89.7256 212.509 89.6572 212.75 89.5203C212.99 89.3834 213.127 89.2123 213.23 88.9385C213.333 88.6647 213.368 88.3567 213.368 87.9802C213.368 87.4327 213.265 87.022 213.059 86.7482C212.853 86.4744 212.475 86.3033 211.925 86.3033H211.101V89.7256H211.136Z" fill="black"></path>
    <path d="M220.27 96.6387C219.549 96.6387 218.931 96.5018 218.45 96.228C217.969 95.9542 217.592 95.5435 217.351 95.0302C217.111 94.4826 216.973 93.7982 216.905 92.9768L218.965 92.6346C219 93.1137 219.034 93.5244 219.103 93.8666C219.171 94.2088 219.309 94.4484 219.48 94.5853C219.652 94.7564 219.858 94.8249 220.133 94.8249C220.442 94.8249 220.648 94.7222 220.785 94.5168C220.888 94.3115 220.957 94.1062 220.957 93.8324C220.957 93.3533 220.854 92.9084 220.614 92.6003C220.373 92.2581 220.064 91.9159 219.686 91.5736L218.45 90.5127C218.004 90.1363 217.66 89.7256 217.386 89.2465C217.111 88.7674 216.973 88.2198 216.973 87.5353C216.973 86.5771 217.248 85.8242 217.832 85.3108C218.416 84.7975 219.171 84.5237 220.167 84.5237C220.751 84.5237 221.266 84.6264 221.644 84.8317C222.022 85.037 222.331 85.2766 222.537 85.6188C222.743 85.9611 222.88 86.3033 222.983 86.6797C223.052 87.0562 223.12 87.4327 223.12 87.8091L221.06 88.1171C221.026 87.7407 221.026 87.4327 220.957 87.1589C220.923 86.8851 220.82 86.6797 220.682 86.5086C220.545 86.3375 220.339 86.2691 220.098 86.2691C219.824 86.2691 219.618 86.3717 219.48 86.5771C219.343 86.7824 219.274 87.022 219.274 87.2615C219.274 87.6722 219.377 88.0144 219.549 88.2882C219.755 88.562 219.995 88.8358 220.339 89.1096L221.541 90.1705C222.022 90.6154 222.468 91.0945 222.811 91.6421C223.155 92.1897 223.361 92.8741 223.361 93.6613C223.361 94.2088 223.223 94.7222 222.983 95.1671C222.743 95.612 222.365 95.9542 221.919 96.228C221.438 96.536 220.888 96.6387 220.27 96.6387Z" fill="black"></path>
    <path d="M231.98 99.0001V84.6606H233.835V99.0001H231.98Z" fill="black"></path>
    <path d="M242.969 96.5018V84.6948H246.713C247.434 84.6948 248.018 84.8317 248.464 85.1055C248.91 85.3793 249.254 85.7557 249.46 86.2691C249.666 86.7824 249.803 87.3985 249.803 88.1171C249.803 88.9727 249.666 89.623 249.357 90.1021C249.082 90.5812 248.67 90.9234 248.189 91.1288C247.708 91.3341 247.125 91.4368 246.472 91.4368H245.408V96.5703H242.969V96.5018ZM245.408 89.6914H246.266C246.61 89.6914 246.884 89.623 247.09 89.5203C247.296 89.4176 247.399 89.2465 247.468 88.9727C247.537 88.7332 247.571 88.4252 247.571 88.0487C247.571 87.6722 247.537 87.3985 247.502 87.1589C247.434 86.9193 247.331 86.714 247.159 86.5771C246.987 86.4402 246.678 86.3718 246.266 86.3718H245.408V89.6914Z" fill="black"></path>
    <path d="M251.074 96.5018V84.6948H253.478V96.5018H251.074Z" fill="black"></path>
    <path d="M255.298 96.5018V84.6948H259.041C259.762 84.6948 260.346 84.8317 260.792 85.1055C261.239 85.3793 261.582 85.7557 261.788 86.2691C261.994 86.7824 262.132 87.3985 262.132 88.1171C262.132 88.9727 261.994 89.623 261.685 90.1021C261.411 90.5812 260.998 90.9234 260.518 91.1288C260.037 91.3341 259.453 91.4368 258.801 91.4368H257.702V96.5703H255.298V96.5018ZM257.702 89.6914H258.56C258.904 89.6914 259.178 89.623 259.384 89.5203C259.59 89.4176 259.693 89.2465 259.762 88.9727C259.831 88.7332 259.865 88.4252 259.865 88.0487C259.865 87.6722 259.831 87.3985 259.797 87.1589C259.728 86.9193 259.625 86.714 259.453 86.5771C259.281 86.4402 258.972 86.3718 258.56 86.3718H257.736V89.6914H257.702Z" fill="black"></path>
    <path d="M263.368 96.5018V84.6948H268.519V86.3718H265.772V89.5203H267.901V91.1972H265.772V94.8591H268.553V96.5018H263.368Z" fill="black"></path>
    <path d="M272.846 96.6387C272.125 96.6387 271.507 96.5018 271.026 96.228C270.545 95.9542 270.167 95.5435 269.927 95.0302C269.687 94.4826 269.549 93.7982 269.481 92.9768L271.541 92.6346C271.575 93.1137 271.61 93.5244 271.678 93.8666C271.747 94.2088 271.884 94.4484 272.056 94.5853C272.228 94.7564 272.434 94.8249 272.709 94.8249C273.018 94.8249 273.224 94.7222 273.361 94.5168C273.464 94.3115 273.533 94.1062 273.533 93.8324C273.533 93.3533 273.43 92.9084 273.189 92.6003C272.949 92.2581 272.64 91.9159 272.262 91.5736L271.026 90.5127C270.579 90.1363 270.236 89.7256 269.961 89.2465C269.687 88.7674 269.549 88.2198 269.549 87.5353C269.549 86.5771 269.824 85.8242 270.408 85.3108C270.992 84.7975 271.747 84.5237 272.743 84.5237C273.327 84.5237 273.842 84.6264 274.22 84.8317C274.597 85.037 274.906 85.2766 275.112 85.6188C275.319 85.9611 275.456 86.3033 275.559 86.6797C275.628 87.0562 275.696 87.4327 275.696 87.8091L273.636 88.1171C273.602 87.7407 273.602 87.4327 273.533 87.1589C273.498 86.8851 273.395 86.6797 273.258 86.5086C273.121 86.3375 272.915 86.2691 272.674 86.2691C272.4 86.2691 272.194 86.3717 272.056 86.5771C271.919 86.7824 271.85 87.022 271.85 87.2615C271.85 87.6722 271.953 88.0144 272.125 88.2882C272.331 88.562 272.571 88.8358 272.915 89.1096L274.117 90.1705C274.597 90.6154 275.044 91.0945 275.387 91.6421C275.731 92.1897 275.937 92.8741 275.937 93.6613C275.937 94.2088 275.799 94.7222 275.559 95.1671C275.319 95.612 274.941 95.9542 274.494 96.228C274.014 96.536 273.464 96.6387 272.846 96.6387Z" fill="black"></path>
    <path d="M284.556 99.0001V84.6606H286.411V99.0001H284.556Z" fill="black"></path>
    <path d="M296.678 96.5018V86.4744H294.858V84.6948H300.902V86.4744H299.117V96.5018H296.678Z" fill="black"></path>
    <path d="M305.298 96.6387C304.405 96.6387 303.718 96.5019 303.203 96.1938C302.723 95.8858 302.345 95.4409 302.173 94.8591C302.001 94.2773 301.864 93.5929 301.864 92.7373V84.6606H304.234V93.0795C304.234 93.3875 304.268 93.6613 304.302 93.9351C304.337 94.2089 304.44 94.4485 304.611 94.6196C304.749 94.7907 304.989 94.8933 305.298 94.8933C305.607 94.8933 305.848 94.7907 306.019 94.6196C306.157 94.4485 306.26 94.2089 306.294 93.9351C306.328 93.6613 306.363 93.3533 306.363 93.0795V84.6606H308.732V92.7373C308.732 93.5587 308.629 94.2773 308.423 94.8591C308.217 95.4409 307.874 95.8858 307.393 96.1938C306.912 96.5019 306.191 96.6387 305.298 96.6387Z" fill="black"></path>
    <path d="M310.415 96.5018V84.6948H313.402C313.918 84.6948 314.398 84.7291 314.845 84.8317C315.291 84.9344 315.669 85.0713 316.012 85.3108C316.356 85.5504 316.596 85.8584 316.802 86.2349C316.974 86.6455 317.077 87.1247 317.077 87.7749C317.077 88.254 317.008 88.6647 316.871 89.0069C316.733 89.3492 316.527 89.623 316.287 89.7941C316.047 89.9994 315.738 90.1363 315.36 90.1705C315.806 90.239 316.218 90.4101 316.527 90.6497C316.837 90.8892 317.077 91.1972 317.214 91.6079C317.386 92.0186 317.455 92.4977 317.455 93.0453C317.455 93.6271 317.386 94.1404 317.214 94.5853C317.077 95.0302 316.836 95.3725 316.562 95.6805C316.253 95.9542 315.909 96.1596 315.463 96.3307C315.051 96.4676 314.536 96.536 313.986 96.536H310.415V96.5018ZM312.853 89.4518H313.437C313.849 89.4518 314.158 89.3834 314.398 89.2807C314.604 89.1438 314.776 88.9727 314.845 88.7332C314.913 88.4936 314.982 88.1856 314.982 87.8091C314.982 87.4327 314.913 87.1589 314.81 86.9536C314.673 86.7482 314.501 86.5771 314.261 86.4744C314.021 86.3718 313.712 86.3375 313.334 86.3375H312.887V89.4518H312.853ZM312.853 94.7906H313.54C314.158 94.7906 314.57 94.6538 314.776 94.3458C315.016 94.0377 315.119 93.5928 315.119 92.9768C315.119 92.4977 315.051 92.1555 314.948 91.8475C314.845 91.5737 314.673 91.3683 314.433 91.2314C314.192 91.0946 313.883 91.0261 313.471 91.0261H312.853V94.7906Z" fill="black"></path>
    <path d="M318.828 96.5018V84.6948H323.979V86.3718H321.232V89.5203H323.361V91.1972H321.232V94.8591H324.014V96.5018H318.828Z" fill="black"></path>
    <path d="M328.306 96.6387C327.585 96.6387 326.967 96.5018 326.486 96.228C326.005 95.9542 325.628 95.5435 325.387 95.0302C325.147 94.4826 325.01 93.7982 324.941 92.9768L327.001 92.6346C327.036 93.1137 327.07 93.5244 327.139 93.8666C327.207 94.2088 327.345 94.4484 327.516 94.5853C327.688 94.7222 327.894 94.8249 328.169 94.8249C328.478 94.8249 328.684 94.7222 328.821 94.5168C328.924 94.3115 328.993 94.1062 328.993 93.8324C328.993 93.3533 328.89 92.9084 328.65 92.6003C328.409 92.2581 328.1 91.9159 327.723 91.5736L326.486 90.5127C326.04 90.1363 325.696 89.7256 325.422 89.2465C325.147 88.7674 325.01 88.2198 325.01 87.5353C325.01 86.5771 325.284 85.8242 325.868 85.3108C326.452 84.7975 327.207 84.5237 328.203 84.5237C328.787 84.5237 329.302 84.6264 329.68 84.8317C330.058 85.037 330.367 85.2766 330.573 85.6188C330.779 85.9611 330.916 86.3033 331.019 86.6797C331.088 87.0562 331.157 87.4327 331.157 87.8091L329.096 88.1171C329.062 87.7407 329.062 87.4327 328.993 87.1589C328.959 86.8851 328.856 86.6797 328.718 86.5086C328.581 86.3375 328.375 86.2691 328.135 86.2691C327.86 86.2691 327.654 86.3717 327.516 86.5771C327.379 86.7824 327.31 87.022 327.31 87.2615C327.31 87.6722 327.413 88.0144 327.585 88.2882C327.791 88.562 328.032 88.8358 328.375 89.1096L329.577 90.1705C330.058 90.6154 330.504 91.0945 330.848 91.6421C331.191 92.1897 331.397 92.8741 331.397 93.6613C331.397 94.2088 331.26 94.7222 331.019 95.1671C330.779 95.612 330.401 95.9542 329.955 96.228C329.44 96.536 328.924 96.6387 328.306 96.6387Z" fill="black"></path>
  </g>
  <defs>
    <clipPath id="clip0_93_3">
      <rect width="349" height="100" fill="white"></rect>
    </clipPath>
  </defs>
</svg>
